PathFileType	4	(X/Y/Z)	./resultDataOpenSim/trcMotMarkerGrf/sub06/qtm-14-05.trc
DataRate	CameraRate	NumFrames	NumMarkers	Units	OrigDataRate	OrigDataStartFrame	OrigNumFrames
250.000000	250.000000	7	24	m	250.000000	476	543
Frame#	Time	L.Toe.Tip			R.Toe.Tip			L.Ankle.Lat			R.Ankle.Lat			L.Ankle.Med			R.Ankle.Med			L.Heel			R.Heel			L.Knee.Lat			R.Knee.Lat			L.Knee.Med			R.Knee.Med			L.Thigh.Upper			R.Thigh.Upper			L.ASIS			R.ASIS			V.Sacral			L.Acromium			R.Acromium			C7			L.Elbow			R.Elbow			L.Wrist.Lat			R.Wrist.Lat
		X1	Y1	Z1	X2	Y2	Z2	X3	Y3	Z3	X4	Y4	Z4	X5	Y5	Z5	X6	Y6	Z6	X7	Y7	Z7	X8	Y8	Z8	X9	Y9	Z9	X10	Y10	Z10	X11	Y11	Z11	X12	Y12	Z12	X13	Y13	Z13	X14	Y14	Z14	X15	Y15	Z15	X16	Y16	Z16	X17	Y17	Z17	X18	Y18	Z18	X19	Y19	Z19	X20	Y20	Z20	X21	Y21	Z21	X22	Y22	Z22	X23	Y23	Z23	X24	Y24	Z24

476	1.9	1.6835118	0.034148016	-0.10133929	1.4831662	0.085933051	0.082891054	1.557638	0.067962062	-0.13067644	1.4128111	0.20684083	0.099599978	1.5545097	0.082941599	-0.044937476	1.451631	0.20826033	0.019534921	1.482333	0.040292469	-0.089214925	1.367745	0.23025882	0.033120014	1.6159692	0.43905315	-0.1476219	1.6814621	0.47423519	0.13720533	1.5743112	0.44257549	-0.030229673	1.6817711	0.4550231	0.0048809491	1.5586868	0.82895018	-0.22410633	1.520435	0.80950211	0.1191212	1.6250222	0.87873995	-0.17376685	1.6081438	0.87510074	0.071761948	1.4284622	0.94325724	-0.054815321	1.5592139	1.3565941	-0.235464	1.5389231	1.3452818	0.12680249	1.4656816	1.3845045	-0.060233074	1.5050189	1.0358595	-0.28584443	1.468685	1.0316141	0.19711918	1.6918813	0.86481023	-0.30520597	1.6402272	0.85362241	0.19218343
477	1.904	1.6835517	0.034146201	-0.10135361	1.5008236	0.08523228	0.084773861	1.5576468	0.068052672	-0.13059824	1.4272663	0.20421963	0.10056409	1.5548035	0.083101202	-0.044860505	1.4660771	0.20610163	0.020251627	1.4823678	0.04047314	-0.089046024	1.3817254	0.22597472	0.034009593	1.6165446	0.43894623	-0.14756317	1.6910872	0.47727798	0.13687458	1.5749184	0.44270542	-0.02991421	1.6907105	0.45817715	0.0049435813	1.5635466	0.82944978	-0.22385369	1.5275075	0.81123541	0.11946361	1.6298108	0.87953371	-0.173975	1.6138036	0.87684717	0.071233778	1.4334186	0.94415186	-0.054400774	1.5644764	1.3579245	-0.23529694	1.5441332	1.3459359	0.12678884	1.4708349	1.3853377	-0.060137153	1.5120493	1.0367351	-0.28629289	1.4714579	1.0332098	0.19708305	1.7031719	0.8693587	-0.30321898	1.6395429	0.85223944	0.19519863
478	1.908	1.6835908	0.034141953	-0.10136232	1.5182539	0.084472751	0.086667779	1.5576607	0.068144337	-0.13051835	1.4418424	0.20146469	0.10150604	1.5550094	0.083230001	-0.044783475	1.4806058	0.20379343	0.021000748	1.4823931	0.040670223	-0.088867566	1.3955066	0.22148825	0.034915926	1.6171394	0.43884062	-0.14750707	1.7005754	0.48023564	0.13650508	1.5757278	0.44285989	-0.029630336	1.6994549	0.46124389	0.0049681387	1.5683031	0.82989349	-0.22350351	1.5345422	0.8131278	0.11993945	1.6340907	0.88023388	-0.17423431	1.61946	0.87849476	0.070730363	1.4383462	0.94497914	-0.053905803	1.5697402	1.3592038	-0.23513918	1.5493331	1.3465147	0.12677406	1.4759912	1.3860992	-0.060047674	1.5191308	1.0375398	-0.28681398	1.4741909	1.0347285	0.19706448	1.7142851	0.87395676	-0.30120238	1.6388396	0.8509385	0.19818689
479	1.912	1.6836323	0.034134728	-0.10136753	1.5356665	0.08368109	0.08859809	1.5576772	0.068240844	-0.13044719	1.4565268	0.19858835	0.10242069	1.5551539	0.083336801	-0.044713284	1.4952137	0.20133306	0.021800125	1.4824167	0.040876358	-0.088696962	1.4089794	0.21684876	0.035857842	1.6177519	0.43874522	-0.14746536	1.7098979	0.48311161	0.13610132	1.5767744	0.44304975	-0.029424788	1.7081012	0.46426037	0.0048827176	1.5728785	0.83029051	-0.22302065	1.5419808	0.81498148	0.12061914	1.6382332	0.88086648	-0.17447514	1.6251092	0.8800468	0.07025079	1.4432861	0.94574257	-0.053386922	1.5750205	1.3604553	-0.23500243	1.5545262	1.3470204	0.12675673	1.4811354	1.3867864	-0.05999297	1.5262349	1.0382751	-0.28738648	1.4767828	1.0361767	0.1970361	1.7252688	0.87859849	-0.2991511	1.6381286	0.84970612	0.20113359
480	1.916	1.6836794	0.034122923	-0.10137184	1.5532798	0.082887394	0.09056754	1.5576965	0.068343691	-0.13038633	1.4713278	0.19560339	0.10331278	1.5552812	0.083437945	-0.044649086	1.5099699	0.19875379	0.022597774	1.4824515	0.041080207	-0.088543065	1.4223453	0.21211678	0.036828414	1.6183789	0.43865652	-0.14744295	1.7190378	0.48590561	0.13566234	1.5780062	0.44326609	-0.029283098	1.7166785	0.467232	0.0046806356	1.5773291	0.83065569	-0.22244199	1.5498227	0.81654993	0.12147722	1.6425629	0.88142942	-0.17464312	1.6307565	0.88150641	0.069797124	1.4482633	0.94644225	-0.05288935	1.5803206	1.3616558	-0.23489015	1.5597121	1.347452	0.12673879	1.4862502	1.3873977	-0.0599839	1.5333367	1.0389424	-0.28798701	1.4791764	1.0375618	0.19698678	1.7361517	0.88327972	-0.29706661	1.6374045	0.84853195	0.20403662
481	1.92	1.6837307	0.034103671	-0.1013762	1.571216	0.082138506	0.092552552	1.5577204	0.068452254	-0.13032758	1.4862577	0.1925182	0.10418842	1.5554096	0.083546985	-0.044586366	1.5250282	0.19609097	0.023344608	1.4825052	0.041279322	-0.088397067	1.4359403	0.20731714	0.037787752	1.6190245	0.4385618	-0.14743682	1.7279939	0.48860825	0.13518583	1.5792951	0.44347604	-0.029132655	1.7251424	0.47013264	0.0044289684	1.5817252	0.83096985	-0.22198887	1.5575588	0.81773881	0.12237562	1.6470234	0.88189824	-0.17475409	1.6363971	0.88286998	0.069370411	1.4532786	0.94706895	-0.052443791	1.5856302	1.3627395	-0.23480157	1.5648886	1.3478074	0.12672711	1.4913436	1.3879452	-0.060002821	1.5404091	1.0395382	-0.28858344	1.4815293	1.0388701	0.19692897	1.7469352	0.8879936	-0.29495504	1.6366609	0.84741381	0.20690849
482	1.924	1.6837811	0.03407578	-0.10137988	1.5894443	0.081470334	0.094526573	1.5577515	0.068566605	-0.1302576	1.501324	0.18933807	0.1050534	1.5555368	0.083673202	-0.044519074	1.5404382	0.19336385	0.024053417	1.4825756	0.041481555	-0.088239363	1.4499732	0.20240885	0.038683504	1.6196935	0.43845118	-0.14744184	1.7367714	0.4912016	0.1346784	1.5805812	0.44365114	-0.028937157	1.7334513	0.47294491	0.0041884478	1.5861089	0.83118193	-0.22189104	1.5647462	0.81869419	0.12316722	1.6513608	0.88224206	-0.17485733	1.6420286	0.8841285	0.068972484	1.458311	0.94760957	-0.052077936	1.590944	1.3636648	-0.23473653	1.5700499	1.3480872	0.12673188	1.4964419	1.3884405	-0.060015498	1.5474255	1.0400531	-0.28914283	1.4841519	1.0400776	0.19688731	1.7576076	0.89272914	-0.29282133	1.6359208	0.84635872	0.20977256
